<?xml version="1.0"?>
<svg xmlns="http://www.w3.org/2000/svg" xmlns:xlink="http://www.w3.org/1999/xlink" xmlns:svgjs="http://svgjs.com/svgjs" version="1.1" width="512" height="512" x="0" y="0" viewBox="0 0 511.628 511.628" style="enable-background:new 0 0 512 512" xml:space="preserve"><g><g xmlns="http://www.w3.org/2000/svg"><g clip-rule="evenodd" fill-rule="evenodd"><ellipse cx="201.937" cy="100.676" fill="#00ccf2" rx="20" ry="20" transform="matrix(.974 -.228 .228 .974 -17.625 48.649)" data-original="#00ccf2" style=""/><ellipse cx="156.437" cy="172.796" fill="#e38eba" rx="20" ry="20" transform="matrix(.974 -.228 .228 .974 -35.25 40.18)" data-original="#e38eba" style=""/><ellipse cx="180.168" cy="284.026" fill="#00ccf2" rx="20" ry="20" transform="matrix(.707 -.707 .707 .707 -148.067 210.587)" data-original="#00ccf2" style=""/><ellipse cx="95.7" cy="303.655" fill="#e38eba" rx="20" ry="20" transform="matrix(.707 -.707 .707 .707 -186.687 156.608)" data-original="#e38eba" style=""/><circle cx="195.113" cy="426.479" fill="#00ccf2" r="20" data-original="#00ccf2" style=""/><circle cx="317.053" cy="364.509" fill="#ffc144" r="20" data-original="#ffc144" style=""/><ellipse cx="361.229" cy="284.026" fill="#00ccf2" rx="20" ry="20" transform="matrix(.378 -.926 .926 .378 -38.282 511.067)" data-original="#00ccf2" style=""/><path d="m471.778 328.137h-76.535v29.547l31.694 18.299c21.121-8.547 37.647-26.073 44.841-47.846z" fill="#e38eba" data-original="#e38eba" style=""/><path d="m291.507 234.01 17.671-30.607-17.671-30.607h-35.809v61.214z" fill="#e38eba" data-original="#e38eba" style=""/><ellipse cx="326.351" cy="124.006" fill="#ffc144" rx="20" ry="20" transform="matrix(.707 -.707 .707 .707 7.901 267.086)" data-original="#ffc144" style=""/><path d="m160.168 284.026c0-7.402 4.021-13.865 9.999-17.324l-.743-1.287-18.41-31.886h-5.231-66.27c-25.943 12.671-43.815 39.309-43.815 70.125 0 32.738 20.171 60.76 48.76 72.329-.759 4.042-1.16 8.21-1.16 12.472 0 33.414 24.389 61.127 56.335 66.321 5.353 26.846 29.045 47.079 57.465 47.079 32.364 0 58.6-26.236 58.6-58.6v-108.733h-4.5-41.876l-18.409-31.886-.743-1.287c-2.942 1.702-6.358 2.677-10.002 2.677-11.046-.001-20-8.955-20-20zm-64.468-.371c11.046 0 20 8.954 20 20s-8.954 20-20 20-20-8.954-20-20 8.954-20 20-20zm79.413 142.824c0-11.046 8.954-20 20-20s20 8.954 20 20-8.954 20-20 20-20-8.954-20-20z" fill="#c5d3de" data-original="#c5d3de" style=""/><path d="m146.435 155.472c2.942-1.702 6.358-2.676 10.001-2.676 11.046 0 20 8.954 20 20s-8.954 20-20 20-20-8.954-20-20c.001-7.403 4.022-13.866 9.999-17.324zm-66.922 78.058h71.501l9.205 15.943 9.948 17.229c2.942-1.702 6.358-2.676 10.001-2.676 11.046 0 20 8.954 20 20 0 7.402-4.021 13.865-9.998 17.323l.743 1.287 18.409 31.886h6.746 39.631v-100.512-61.214-118.141c0-24.64-20.16-44.8-44.8-44.8s-44.8 20.16-44.8 44.8v3.728c-6.571-3.033-13.887-4.729-21.6-4.729-28.498 0-51.6 23.102-51.6 51.6 0 5.973 1.019 11.708 2.885 17.044-22.963 10.685-38.885 33.959-38.885 60.956-.001 20.006 8.743 37.965 22.614 50.276zm142.424-132.854c0 11.046-8.954 20-20 20s-20-8.954-20-20 8.954-20 20-20c11.045 0 20 8.954 20 20z" fill="#e7e9ef" data-original="#e7e9ef" style=""/><path d="m317.053 344.509c11.046 0 20 8.954 20 20 0 5.523-2.239 10.523-5.858 14.142l1.36 1.36 39.207 39.207v35.558c31.946-5.194 56.335-32.907 56.335-66.321 0-4.262-.402-8.431-1.16-12.472l-31.694-18.299v-29.547h76.534c2.544-7.699 3.92-15.93 3.92-24.483 0-30.816-17.872-57.454-43.815-70.125h-41.499l-9.205 15.943-9.948 17.23c5.977 3.458 9.998 9.921 9.998 17.323 0 11.046-8.954 20-20 20s-20-8.954-20-20h-85.532v50.496 29.987h41.355c.003-11.045 8.957-19.999 20.002-19.999z" fill="#e2e9ee" data-original="#e2e9ee" style=""/><path d="m317.053 384.509c-11.046 0-20-8.954-20-20h-41.355v78.746c0 32.364 26.236 58.6 58.6 58.6 28.42 0 52.112-20.233 57.465-47.079v-35.558l-24.842-24.842-15.725-15.725c-3.62 3.619-8.62 5.858-14.143 5.858z" fill="#6d91ac" data-original="#6d91ac" style=""/><path d="m450.933 174.502h3c-3.02-23.206-17.88-42.691-38.32-52.202 1.867-5.336 2.885-11.071 2.885-17.044 0-28.498-23.102-51.6-51.6-51.6-7.713 0-15.029 1.695-21.6 4.729v-3.728c0-24.64-20.16-44.8-44.8-44.8s-44.8 20.16-44.8 44.8v18.853h4.125 37.375l9.205 15.943 9.947 17.23c2.942-1.702 6.358-2.676 10.001-2.676 11.046 0 20 8.954 20 20 0 7.402-4.021 13.865-9.998 17.323l.743 1.287 18.41 31.886h95.427z" fill="#e2e9ee" data-original="#e2e9ee" style=""/><path d="m453.933 174.502h-3-95.428l-4.839-8.382-14.313-24.791c-2.942 1.702-6.358 2.676-10.002 2.676-11.046 0-20-8.954-20-20 0-7.402 4.021-13.865 9.998-17.323l-.743-1.287-9.205-15.943-9.205-15.943h-18.686-22.812v99.286h35.809l17.671 30.607-17.671 30.607h-35.809v50.016h85.532c0-11.046 8.954-20 20-20 3.644 0 7.059.974 10.001 2.676l.743-1.287 18.41-31.886h41.499c13.871-12.31 22.615-30.27 22.615-50.274 0-2.965-.192-5.887-.565-8.752z" fill="#f3eff0" data-original="#f3eff0" style=""/></g><g><path d="m485.698 303.655c0-29.417-14.255-56.128-37.938-72.41 28.932-35.361 18.765-90.896-20.431-114.003 9.025-42.397-30.592-81.667-72.898-72.328-8.57-47.604-71.049-61.337-98.732-21.785-27.702-39.572-90.176-25.79-98.732 21.785-42.312-9.34-81.923 29.936-72.898 72.327-3.275 1.99-6.407 4.227-9.363 6.69-4.243 3.535-4.817 9.841-1.281 14.084 3.535 4.243 9.841 4.816 14.084 1.281 3.268-2.723 6.821-5.071 10.586-6.997h23.417l12.132 21.013c-16.565 19.067-2.699 49.586 22.795 49.482 13.037 0 24.158-8.359 28.286-20h60.975v141.727h-30.603l-12.133-21.014c18.21-21.329-.478-54.024-28.278-48.98l-15.01-25.998c-1.786-3.094-5.087-5-8.66-5h-67.53c-3.938-3.968-7.259-8.463-9.895-13.406-2.598-4.872-8.655-6.718-13.529-4.117-4.873 2.599-6.716 8.656-4.117 13.529 2.212 4.148 4.78 8.062 7.683 11.715-54.445 36.5-48.865 121.639 9.94 150.744-1.752 20.496 4.92 41.147 18.33 56.718 10.396 12.109 24.264 20.681 39.575 24.571 17.228 56.541 94.027 65.737 124.225 15.605 30.218 50.157 107.014 40.906 124.225-15.605 15.312-3.891 29.18-12.462 39.575-24.571 13.41-15.57 20.083-36.222 18.33-56.718 29.322-14.969 47.87-44.928 47.87-78.339zm-57.79-80.125h-37.525c-3.573 0-6.874 1.906-8.66 5l-15.01 25.998c-14.474-2.867-29.233 6.096-33.77 19.498h-67.245v-30.016h25.809c3.573 0 6.874-1.906 8.66-5l17.671-30.607c1.787-3.094 1.787-6.906 0-10l-17.671-30.607c-1.786-3.094-5.087-5-8.66-5h-25.809v-79.286h25.726l12.132 21.013c-18.209 21.328.479 54.022 28.278 48.979l15.011 25.999c1.786 3.094 5.087 5 8.66 5h88.979c-.32 14.661-6.283 28.642-16.576 39.029zm-56.678 60.495c0 5.514-4.486 10-10 10-13.266-.549-13.262-19.453 0-20 5.514 0 10 4.486 10 10zm-105.532-101.229h20.036l11.897 20.607-11.897 20.607h-20.036zm60.654-48.791c-5.514 0-10-4.486-10-10 .55-13.266 19.452-13.263 20 0-.001 5.514-4.487 10-10 10zm-25.854-114.149c19.188 0 34.8 15.611 34.8 34.8v3.728c0 3.41 1.738 6.586 4.611 8.424 2.872 1.838 6.483 2.084 9.58.655 33.077-15.323 68.785 17.153 56.685 51.535-1.697 4.852.56 10.2 5.22 12.368 14.229 6.621 24.895 18.754 29.917 33.136h-80.032l-12.132-21.013c18.209-21.329-.479-54.024-28.278-48.98l-15.01-25.998c-1.786-3.094-5.087-5-8.66-5h-31.5v-8.854c-.001-19.19 15.61-34.801 34.799-34.801zm-197.005 92.443c-5.862-32.603 28.476-58.935 58.415-44.837 3.096 1.431 6.708 1.182 9.58-.655 2.873-1.838 4.611-5.014 4.611-8.424v-3.728c1.917-46.178 67.7-46.142 69.6 0v36.02h-15.475c-11.59-31.316-57.648-23.816-58.286 10 .641 33.821 46.702 41.311 58.286 10h15.475v52.12h-60.975c-4.535-13.401-19.297-22.365-33.769-19.497l-15.011-25.999c-1.786-3.094-5.087-5-8.66-5zm108.444-11.624c0 5.514-4.486 10-10 10-13.266-.549-13.262-19.453 0-20 5.514 0 10 4.487 10 10zm-55.5 82.121c-5.514 0-10-4.486-10-10 .549-13.266 19.453-13.262 20 0 0 5.513-4.486 10-10 10zm33.731 101.229c0 5.514-4.486 10-10 10-13.266-.549-13.262-19.453 0-20 5.514 0 10 4.486 10 10zm6.93 207.83c-23.105 0-43.148-16.416-47.658-39.033-.816-4.091-4.085-7.246-8.202-7.915-28.62-4.576-49.19-29.935-47.886-58.924h66.833l12.133 21.014c-4.49 5.245-7.205 12.053-7.205 19.482 1.647 39.796 58.357 39.79 60 0 .196-18.521-17.338-33.047-35.483-29.497l-15.011-25.999c-1.786-3.094-5.087-5-8.66-5h-79.486c-21.745-9.492-36.672-29.275-40.048-52.328h20.989c11.59 31.316 57.648 23.816 58.286-10-.641-33.821-46.702-41.311-58.286-10h-20.994c3.106-21.336 16.073-39.865 35.487-50.125h63.333l12.132 21.013c-18.208 21.328.479 54.021 28.277 48.979l15.011 26c1.786 3.094 5.087 5 8.66 5h36.376v98.733c.002 26.798-21.8 48.6-48.598 48.6zm-1.985-75.376c5.514 0 10 4.486 10 10-.549 13.266-19.453 13.262-20 0 0-5.514 4.486-10 10-10zm-109.413-112.824c0-5.514 4.486-10 10-10 13.266.549 13.262 19.453 0 20-5.514 0-10-4.486-10-10zm228.598 188.2c-26.798 0-48.6-21.802-48.6-48.6v-68.746h23.069c5.369 16.244 25.513 24.967 41.213 17.069l31.782 31.782v30.379c-4.862 22.143-24.673 38.116-47.464 38.116zm2.755-117.346c-5.514 0-10-4.486-10-10.001.549-13.265 19.453-13.261 20 0 0 5.515-4.485 10.001-10 10.001zm64.709 67.249v-22.54c0-2.652-1.054-5.195-2.929-7.071l-34.711-34.711c9.622-19.409-5.313-43.21-27.07-42.927-13.037 0-24.159 8.359-28.286 20h-23.069v-60.483h67.246c4.128 11.64 15.249 19.999 28.286 19.999 25.498.104 39.357-30.425 22.795-49.483l12.132-21.013h33.332c26.84 13.806 41.249 45.134 34.672 74.607h-68.918c-5.523 0-10 4.478-10 10v29.547c0 3.572 1.906 6.874 5 8.66l27.516 15.886c2.967 25.856-12.429 50.612-35.996 59.529zm45.77-76.979-22.288-12.868v-13.773h51.133c-6.648 11.329-16.57 20.665-28.845 26.641z" fill="#000000" data-original="#000000" style=""/><path d="m58.143 180.317c13.268-.528 13.258-19.476 0-20h-.007c-13.268.53-13.25 19.478.007 20z" fill="#000000" data-original="#000000" style=""/></g></g></g></svg>
