<?xml version="1.0"?>
<svg xmlns="http://www.w3.org/2000/svg" xmlns:xlink="http://www.w3.org/1999/xlink" xmlns:svgjs="http://svgjs.com/svgjs" version="1.1" width="512" height="512" x="0" y="0" viewBox="0 0 74 74" style="enable-background:new 0 0 512 512" xml:space="preserve" class=""><g><path xmlns="http://www.w3.org/2000/svg" d="m37 70.583a4.7 4.7 0 0 0 4.7-4.7v-1.058h-9.4v1.054a4.7 4.7 0 0 0 4.7 4.704z" fill="#9297ab" data-original="#9297ab" style="" class=""/><path xmlns="http://www.w3.org/2000/svg" d="m37 71.083a5.211 5.211 0 0 1 -5.2-5.205v-1.553h10.4v1.554a5.211 5.211 0 0 1 -5.2 5.204zm-4.2-5.759v.554a4.2 4.2 0 1 0 8.409 0v-.554z" fill="#323c6b" data-original="#323c6b" style="" class=""/><path xmlns="http://www.w3.org/2000/svg" d="m26.747 51.435h20.506a0 0 0 0 1 0 0v10.028a4.222 4.222 0 0 1 -4.222 4.222h-12.063a4.222 4.222 0 0 1 -4.222-4.222v-10.028a0 0 0 0 1 .001 0z" fill="#9297ab" data-original="#9297ab" style="" class=""/><path xmlns="http://www.w3.org/2000/svg" d="m47.25 51.43v10.03a4.229 4.229 0 0 1 -4.22 4.23h-2.92a4.229 4.229 0 0 0 4.22-4.23v-10.03z" fill="#84879c" data-original="#84879c" style="" class=""/><g xmlns="http://www.w3.org/2000/svg" fill="#323c6b"><path d="m26.747 55.671h20.507v1h-20.507z" fill="#323c6b" data-original="#323c6b" style="" class=""/><path d="m26.747 60.449h20.507v1h-20.507z" fill="#323c6b" data-original="#323c6b" style="" class=""/><path d="m20.23 2.745h1v5.733h-1z" transform="matrix(.911 -.412 .412 .911 -.47 9.042)" fill="#323c6b" data-original="#323c6b" style="" class=""/><path d="m13.55 7.904h1v5.733h-1z" transform="matrix(.629 -.777 .777 .629 -3.161 14.917)" fill="#323c6b" data-original="#323c6b" style="" class=""/><path d="m9.896 15.512h.999v5.733h-.999z" transform="matrix(.213 -.977 .977 .213 -9.777 24.614)" fill="#323c6b" data-original="#323c6b" style="" class=""/><path d="m50.404 5.112h5.733v1h-5.733z" transform="matrix(.412 -.911 .911 .412 26.204 51.835)" fill="#323c6b" data-original="#323c6b" style="" class=""/><path d="m57.083 10.271h5.733v1h-5.733z" transform="matrix(.777 -.629 .629 .777 6.569 40.104)" fill="#323c6b" data-original="#323c6b" style="" class=""/><path d="m60.737 17.879h5.733v.999h-5.733z" transform="matrix(.977 -.213 .213 .977 -2.455 13.969)" fill="#323c6b" data-original="#323c6b" style="" class=""/><path d="m35.34 44.673h4.218v1h-4.218z" fill="#323c6b" data-original="#323c6b" style="" class=""/><path d="m35.34 15.125h4.218v1h-4.218z" fill="#323c6b" data-original="#323c6b" style="" class=""/></g><path xmlns="http://www.w3.org/2000/svg" d="m50.926 13.475a7.689 7.689 0 0 1 5.939 7.165 4.253 4.253 0 0 1 -.091.992 7.631 7.631 0 0 1 3.22 6.132 7.439 7.439 0 0 1 -2.552 5.547 7.141 7.141 0 0 1 .972 3.6 7.678 7.678 0 0 1 -4.846 6.934c-.38 4.283-4.39 7.641-9.266 7.641h-.068a5.809 5.809 0 0 1 -5.917-5.583v-36.015c.387-2.16 2.223-3.162 4.674-3.138 4.799.326 6.947 4.088 7.935 6.725z" fill="#fcd462" data-original="#fcd462" style=""/><path xmlns="http://www.w3.org/2000/svg" d="m50.81 46.07a8.731 8.731 0 0 0 2.72-1.87 8.286 8.286 0 0 1 -4.51 6.13 7.675 7.675 0 0 0 1.79-4.26z" fill="#f7be56" data-original="#f7be56" style="" class=""/><path xmlns="http://www.w3.org/2000/svg" d="m57.44 33.31a7.187 7.187 0 0 1 .97 3.6 7.616 7.616 0 0 1 -4.39 6.73 7.1 7.1 0 0 0 .66-8.11 7.438 7.438 0 0 0 2.55-5.55 7.607 7.607 0 0 0 -3.22-6.13 4.011 4.011 0 0 0 .09-.99 7.683 7.683 0 0 0 -5.94-7.17c-.98-2.64-3.13-6.4-7.93-6.72a7.049 7.049 0 0 0 -1.7.17c.64-1.64 2.31-2.41 4.46-2.39 4.8.33 6.95 4.09 7.94 6.73a7.674 7.674 0 0 1 5.93 7.16 4.015 4.015 0 0 1 -.09.99 7.621 7.621 0 0 1 3.22 6.13 7.438 7.438 0 0 1 -2.55 5.55z" fill="#f7be56" data-original="#f7be56" style="" class=""/><path xmlns="http://www.w3.org/2000/svg" d="m47.882 33.824a.5.5 0 0 1 -.382-.824 6.546 6.546 0 0 1 4.985-2.691c3.03 0 5.247 2.581 5.339 2.691a.5.5 0 0 1 -.763.646c-.02-.023-2.016-2.337-4.576-2.337h-.006a5.607 5.607 0 0 0 -4.215 2.336.5.5 0 0 1 -.382.179z" fill="#323c6b" data-original="#323c6b" style="" class=""/><path xmlns="http://www.w3.org/2000/svg" d="m51.764 31.363a.5.5 0 0 1 -.164-.027 6.257 6.257 0 0 1 -3.806-3.959.5.5 0 1 1 .968-.253 5.333 5.333 0 0 0 3.166 3.268.5.5 0 0 1 -.165.972z" fill="#323c6b" data-original="#323c6b" style="" class=""/><path xmlns="http://www.w3.org/2000/svg" d="m46.394 14.6a.5.5 0 0 1 -.228-.945 7.227 7.227 0 0 1 4.904-.655.5.5 0 0 1 -.269.963 6.342 6.342 0 0 0 -4.181.585.5.5 0 0 1 -.226.052z" fill="#323c6b" data-original="#323c6b" style="" class=""/><path xmlns="http://www.w3.org/2000/svg" d="m53.414 44.347a7.813 7.813 0 0 1 -6.066-2.306.5.5 0 0 1 .738-.675c.844.924 2.468 2.027 5.479 1.98h.006a.5.5 0 0 1 .006 1z" fill="#323c6b" data-original="#323c6b" style="" class=""/><circle xmlns="http://www.w3.org/2000/svg" cx="44.587" cy="15.171" fill="#e1e6e9" r="2.107" data-original="#e1e6e9" style="" class=""/><path xmlns="http://www.w3.org/2000/svg" d="m44.587 17.778a2.607 2.607 0 1 1 2.607-2.606 2.61 2.61 0 0 1 -2.607 2.606zm0-4.213a1.607 1.607 0 1 0 1.607 1.607 1.608 1.608 0 0 0 -1.607-1.608z" fill="#323c6b" data-original="#323c6b" style="" class=""/><circle xmlns="http://www.w3.org/2000/svg" cx="47.79" cy="25.207" fill="#e1e6e9" r="2.107" data-original="#e1e6e9" style="" class=""/><path xmlns="http://www.w3.org/2000/svg" d="m47.79 27.813a2.607 2.607 0 1 1 2.61-2.606 2.61 2.61 0 0 1 -2.61 2.606zm0-4.213a1.607 1.607 0 1 0 1.61 1.607 1.608 1.608 0 0 0 -1.61-1.607z" fill="#323c6b" data-original="#323c6b" style="" class=""/><circle xmlns="http://www.w3.org/2000/svg" cx="46.694" cy="39.858" fill="#e1e6e9" r="2.107" data-original="#e1e6e9" style="" class=""/><path xmlns="http://www.w3.org/2000/svg" d="m46.694 42.465a2.607 2.607 0 1 1 2.606-2.607 2.61 2.61 0 0 1 -2.606 2.607zm0-4.213a1.607 1.607 0 1 0 1.606 1.606 1.609 1.609 0 0 0 -1.606-1.607z" fill="#323c6b" data-original="#323c6b" style="" class=""/><path xmlns="http://www.w3.org/2000/svg" d="m23.074 13.475a7.689 7.689 0 0 0 -5.939 7.165 4.253 4.253 0 0 0 .091.992 7.631 7.631 0 0 0 -3.22 6.132 7.439 7.439 0 0 0 2.552 5.547 7.141 7.141 0 0 0 -.972 3.6 7.678 7.678 0 0 0 4.846 6.934c.38 4.283 4.39 7.641 9.266 7.641h.068a5.809 5.809 0 0 0 5.917-5.583v-36.015c-.387-2.16-2.223-3.162-4.674-3.138-4.799.326-6.947 4.088-7.935 6.725z" fill="#fcd462" data-original="#fcd462" style=""/><path xmlns="http://www.w3.org/2000/svg" d="m17.92 35.53a7.159 7.159 0 0 0 -.97 3.6 6.86 6.86 0 0 0 .49 2.56 7.213 7.213 0 0 1 -1.85-4.78 7.071 7.071 0 0 1 .79-3.26 7.885 7.885 0 0 0 1.54 1.88z" fill="#f7be56" data-original="#f7be56" style="" class=""/><path xmlns="http://www.w3.org/2000/svg" d="m35.67 9.84a5.451 5.451 0 0 0 -3.3-.87c-4.79.32-6.94 4.08-7.93 6.72a7.7 7.7 0 0 0 -5.94 7.17 4.559 4.559 0 0 0 .09.99 7.634 7.634 0 0 0 -3.22 6.13 7.233 7.233 0 0 0 .48 2.6 7.267 7.267 0 0 1 -1.84-4.82 7.621 7.621 0 0 1 3.22-6.13 4.015 4.015 0 0 1 -.09-.99 7.674 7.674 0 0 1 5.93-7.16c.99-2.64 3.14-6.4 7.94-6.73 2.43-.02 4.25.96 4.66 3.09z" fill="#f7be56" data-original="#f7be56" style="" class=""/><path xmlns="http://www.w3.org/2000/svg" d="m26.118 33.824a.5.5 0 0 1 -.382-.177 5.607 5.607 0 0 0 -4.215-2.336h-.006c-2.56 0-4.556 2.313-4.576 2.337a.5.5 0 0 1 -.764-.648c.093-.11 2.309-2.691 5.339-2.691a6.546 6.546 0 0 1 4.986 2.691.5.5 0 0 1 -.381.823z" fill="#323c6b" data-original="#323c6b" style="" class=""/><path xmlns="http://www.w3.org/2000/svg" d="m22.236 31.363a.5.5 0 0 1 -.165-.972 5.333 5.333 0 0 0 3.166-3.268.5.5 0 1 1 .968.253 6.257 6.257 0 0 1 -3.805 3.959.5.5 0 0 1 -.164.028z" fill="#323c6b" data-original="#323c6b" style="" class=""/><path xmlns="http://www.w3.org/2000/svg" d="m27.606 14.6a.5.5 0 0 1 -.227-.055 6.265 6.265 0 0 0 -4.179-.586.5.5 0 0 1 -.27-.959 7.224 7.224 0 0 1 4.9.658.5.5 0 0 1 -.228.945z" fill="#323c6b" data-original="#323c6b" style="" class=""/><path xmlns="http://www.w3.org/2000/svg" d="m20.586 44.347h-.164a.5.5 0 0 1 .006-1h.157a6.851 6.851 0 0 0 5.329-1.981.5.5 0 0 1 .738.675 7.814 7.814 0 0 1 -6.066 2.306z" fill="#323c6b" data-original="#323c6b" style="" class=""/><circle xmlns="http://www.w3.org/2000/svg" cx="29.413" cy="15.171" fill="#e1e6e9" r="2.107" data-original="#e1e6e9" style="" class=""/><path xmlns="http://www.w3.org/2000/svg" d="m29.413 17.778a2.607 2.607 0 1 1 2.606-2.606 2.61 2.61 0 0 1 -2.606 2.606zm0-4.213a1.607 1.607 0 1 0 1.606 1.607 1.609 1.609 0 0 0 -1.606-1.608z" fill="#323c6b" data-original="#323c6b" style="" class=""/><circle xmlns="http://www.w3.org/2000/svg" cx="26.21" cy="25.207" fill="#e1e6e9" r="2.107" data-original="#e1e6e9" style="" class=""/><path xmlns="http://www.w3.org/2000/svg" d="m26.21 27.813a2.607 2.607 0 1 1 2.606-2.607 2.61 2.61 0 0 1 -2.606 2.607zm0-4.213a1.607 1.607 0 1 0 1.606 1.606 1.608 1.608 0 0 0 -1.606-1.606z" fill="#323c6b" data-original="#323c6b" style="" class=""/><circle xmlns="http://www.w3.org/2000/svg" cx="27.306" cy="39.858" fill="#e1e6e9" r="2.107" data-original="#e1e6e9" style="" class=""/><path xmlns="http://www.w3.org/2000/svg" d="m27.306 42.465a2.607 2.607 0 1 1 2.607-2.606 2.61 2.61 0 0 1 -2.607 2.606zm0-4.213a1.607 1.607 0 1 0 1.607 1.607 1.609 1.609 0 0 0 -1.607-1.608z" fill="#323c6b" data-original="#323c6b" style="" class=""/><path xmlns="http://www.w3.org/2000/svg" d="m44.333 69.062a.5.5 0 0 1 -.089-.992 6.753 6.753 0 0 0 5.5-6.378.5.5 0 0 1 1 .034 7.758 7.758 0 0 1 -6.318 7.328.475.475 0 0 1 -.093.008z" fill="#323c6b" data-original="#323c6b" style="" class=""/><path xmlns="http://www.w3.org/2000/svg" d="m50.253 59.94a.5.5 0 0 1 -.5-.5v-.44a.5.5 0 0 1 1 0v.44a.5.5 0 0 1 -.5.5z" fill="#323c6b" data-original="#323c6b" style="" class=""/><path xmlns="http://www.w3.org/2000/svg" d="m25.125 6.254a.5.5 0 0 1 -.289-.908l.105-.076c.109-.078.218-.156.331-.228a.5.5 0 1 1 .538.843c-.1.062-.191.13-.286.2l-.111.079a.5.5 0 0 1 -.288.09z" fill="#323c6b" data-original="#323c6b" style="" class=""/><path xmlns="http://www.w3.org/2000/svg" d="m35.25 5.211a.5.5 0 0 1 -.233-.058 8.3 8.3 0 0 0 -3.92-.9l-.278.007a10.968 10.968 0 0 0 -2.819.573.5.5 0 1 1 -.326-.945 12 12 0 0 1 3.1-.63l.312-.008a9.294 9.294 0 0 1 4.4 1.019.5.5 0 0 1 -.234.942z" fill="#323c6b" data-original="#323c6b" style="" class=""/><path xmlns="http://www.w3.org/2000/svg" d="m44.3 51.989a6.311 6.311 0 0 1 -6.485-6.083v-36.018c.42-2.372 2.311-3.669 5.185-3.638 3.8.257 6.663 2.612 8.308 6.814a8.2 8.2 0 0 1 6.061 7.576 5.8 5.8 0 0 1 -.043.781 8.072 8.072 0 0 1 3.173 6.343 7.882 7.882 0 0 1 -2.428 5.646 7.568 7.568 0 0 1 .849 3.5 8.182 8.182 0 0 1 -4.879 7.272c-.563 4.403-4.776 7.807-9.741 7.807zm-1.413-44.74c-1.357 0-3.654.365-4.077 2.728l.008 35.93a5.291 5.291 0 0 0 5.42 5.083c4.624 0 8.476-3.156 8.833-7.185a.5.5 0 0 1 .3-.415 7.218 7.218 0 0 0 4.544-6.475 6.6 6.6 0 0 0 -.905-3.352.5.5 0 0 1 .1-.622 6.943 6.943 0 0 0 2.387-5.176 7.118 7.118 0 0 0 -3.017-5.729.5.5 0 0 1 -.189-.52 3.861 3.861 0 0 0 .077-.875 7.231 7.231 0 0 0 -5.573-6.683.5.5 0 0 1 -.334-.307c-1.5-4.012-4.026-6.165-7.5-6.4z" fill="#323c6b" data-original="#323c6b" style="" class=""/><path xmlns="http://www.w3.org/2000/svg" d="m29.769 51.989c-5.033 0-9.247-3.4-9.8-7.8a8.182 8.182 0 0 1 -4.879-7.272 7.568 7.568 0 0 1 .849-3.5 7.882 7.882 0 0 1 -2.428-5.646 8.072 8.072 0 0 1 3.173-6.343 5.8 5.8 0 0 1 -.043-.781 8.2 8.2 0 0 1 6.059-7.583c1.645-4.2 4.5-6.557 8.279-6.813h.1c2.85 0 4.7 1.29 5.1 3.549l.008 36.106a6.293 6.293 0 0 1 -6.418 6.083zm1.323-44.739h-.079c-3.445.235-5.968 2.388-7.471 6.4a.5.5 0 0 1 -.334.307 7.231 7.231 0 0 0 -5.573 6.683 3.861 3.861 0 0 0 .077.875.5.5 0 0 1 -.189.52 7.118 7.118 0 0 0 -3.017 5.729 6.943 6.943 0 0 0 2.387 5.176.5.5 0 0 1 .1.622 6.6 6.6 0 0 0 -.905 3.352 7.218 7.218 0 0 0 4.542 6.476.5.5 0 0 1 .3.415c.357 4.029 4.209 7.185 8.768 7.185a5.308 5.308 0 0 0 5.485-5.083v-36.019c-.416-2.272-2.706-2.638-4.091-2.638z" fill="#323c6b" data-original="#323c6b" style="" class=""/><path xmlns="http://www.w3.org/2000/svg" d="m43.032 66.185h-12.064a4.727 4.727 0 0 1 -4.722-4.722v-10.528h21.507v10.528a4.727 4.727 0 0 1 -4.721 4.722zm-15.785-14.25v9.529a3.726 3.726 0 0 0 3.722 3.722h12.063a3.726 3.726 0 0 0 3.722-3.722v-9.529z" fill="#323c6b" data-original="#323c6b" style="" class=""/><path xmlns="http://www.w3.org/2000/svg" d="m32.487 28.668a.647.647 0 0 1 .648.645l.013 6.82a.646.646 0 0 1 -1.293 0l-.013-6.82a.647.647 0 0 1 .645-.645z" fill="#ffffff" data-original="#ffffff" style=""/><path xmlns="http://www.w3.org/2000/svg" d="m32.482 26.243a.647.647 0 0 1 .648.645v.339a.646.646 0 0 1 -1.293 0v-.339a.647.647 0 0 1 .645-.645z" fill="#ffffff" data-original="#ffffff" style=""/></g></svg>
